# xmcd CD database file
#
# Track frame offsets:
#	150
#	15677
#	30441
#	52719
#	65698
#	85432
#	101491
#	123339
#	145992
#	169283
#	183551
#	200589
#	214213
#	234862
#
# Disc length: 3335 seconds
#
# Revision: 1
# Processed by: cddbd v1.5.1PL0 Copyright (c) Steve Scherf et al.
# Submitted via: CDex 1.50beta9
#
DISCID=c10d050e
DTITLE=Tal Farlow - The fastest Guitar Player of his Era, CD 2
DYEAR=2002
DGENRE=Jazz
TTITLE0=Strike up the band
TTITLE1=Skylark
TTITLE2=Have you met miss jones?
TTITLE3=Tenderly
TTITLE4=And she remembers me
TTITLE5=My old flame
TTITLE6=Cherokee
TTITLE7=Autumn in New York
TTITLE8=Tal's blues
TTITLE9=I like to recognize the tune
TTITLE10=There will never be another you
TTITLE11=Just one of those things
TTITLE12=Tenderly
TTITLE13=It's you or no one
EXTD=YEAR: 2002
EXTT0=
EXTT1=
EXTT2=
EXTT3=
EXTT4=
EXTT5=
EXTT6=
EXTT7=
EXTT8=
EXTT9=
EXTT10=
EXTT11=
EXTT12=
EXTT13=
PLAYORDER=
